<?xml version="1.0" encoding="utf-8"?>
<!-- Generator: Adobe Illustrator 16.0.0, SVG Export Plug-In . SVG Version: 6.00 Build 0)  -->
<!DOCTYPE svg PUBLIC "-//W3C//DTD SVG 1.1//EN" "http://www.w3.org/Graphics/SVG/1.1/DTD/svg11.dtd">
<svg version="1.1" id="Layer_1" xmlns="http://www.w3.org/2000/svg" xmlns:xlink="http://www.w3.org/1999/xlink" x="0px" y="0px"
	 width="20px" height="20px" viewBox="0 0 20 20" style="enable-background:new 0 0 20 20;" xml:space="preserve">
<style type="text/css">
<![CDATA[
	.st0{fill:#5D5E5E;}
	.st1{fill-rule:evenodd;clip-rule:evenodd;}
	.st2{fill:#FFFFFF;}
	.st3{fill-rule:evenodd;clip-rule:evenodd;fill:#5D5E5E;}
	.st4{fill-rule:evenodd;clip-rule:evenodd;fill:#FFFFFF;}
]]>
</style>
<g>
	<path class="st0" d="M12.2,5.3H7.8c-1.5,0-2.5,1-2.5,2.5v4.4c0,1.5,1,2.5,2.5,2.5h4.4c1.5,0,2.5-1,2.5-2.5V7.8
		C14.7,6.2,13.8,5.3,12.2,5.3z M10,12.9c-1.6,0-3-1.3-2.9-3C7,8.3,8.4,7,10,7c1.6,0,2.9,1.3,2.9,3C12.9,11.6,11.6,12.9,10,12.9z
		 M13.1,7.6c-0.4,0-0.7-0.3-0.7-0.7c0-0.4,0.3-0.7,0.7-0.7s0.7,0.3,0.7,0.7C13.7,7.3,13.4,7.6,13.1,7.6z"/>
	<path class="st0" d="M10,0C4.5,0,0,4.5,0,10s4.5,10,10,10s10-4.5,10-10S15.5,0,10,0z M15.8,12.2c0,2.1-1.4,3.5-3.5,3.5H7.8
		c-2.1,0-3.5-1.4-3.5-3.5V7.8c0-2.1,1.4-3.5,3.5-3.5h4.4c2.1,0,3.5,1.4,3.5,3.5V12.2z"/>
	<path class="st0" d="M10,8.1c-1.1,0-1.9,0.9-1.9,1.9s0.9,1.9,1.9,1.9c1.1,0,1.9-0.9,1.9-1.9C11.9,8.9,11,8.1,10,8.1z"/>
</g>
</svg>
