<?xml version="1.0" encoding="utf-8"?>
<!-- Generator: Adobe Illustrator 16.0.0, SVG Export Plug-In . SVG Version: 6.00 Build 0)  -->
<!DOCTYPE svg PUBLIC "-//W3C//DTD SVG 1.1//EN" "http://www.w3.org/Graphics/SVG/1.1/DTD/svg11.dtd">
<svg version="1.1" id="Layer_1" xmlns="http://www.w3.org/2000/svg" xmlns:xlink="http://www.w3.org/1999/xlink" x="0px" y="0px"
	 width="20px" height="20px" viewBox="0 0 20 20" style="enable-background:new 0 0 20 20;" xml:space="preserve">
<style type="text/css">
<![CDATA[
	.st0{fill:#5D5E5E;}
	.st1{fill-rule:evenodd;clip-rule:evenodd;}
	.st2{fill:#FFFFFF;}
	.st3{fill-rule:evenodd;clip-rule:evenodd;fill:#5D5E5E;}
	.st4{fill-rule:evenodd;clip-rule:evenodd;fill:#FFFFFF;}
]]>
</style>
<path class="st0" d="M10,0C4.5,0,0,4.5,0,10s4.5,10,10,10s10-4.5,10-10S15.5,0,10,0z M14.4,7.8c0,0.1,0,0.2,0,0.3
	c0,3-2.3,6.4-6.4,6.4c-1.3,0-2.4-0.4-3.4-1c0.2,0,0.4,0,0.5,0c1.1,0,2-0.4,2.8-1c-1,0-1.8-0.7-2.1-1.6c0.1,0,0.3,0,0.4,0
	c0.2,0,0.4,0,0.6-0.1C5.7,10.7,5,9.8,5,8.7v0C5.3,8.8,5.6,9,6,9C5.4,8.6,5,7.9,5,7.1C5,6.7,5.1,6.3,5.3,6c1.1,1.4,2.8,2.3,4.6,2.3
	c0-0.2-0.1-0.3-0.1-0.5c0-1.2,1-2.2,2.2-2.2c0.6,0,1.2,0.3,1.6,0.7c0.5-0.1,1-0.3,1.4-0.5c-0.2,0.5-0.5,1-1,1.2
	c0.5-0.1,0.9-0.2,1.3-0.4C15.2,7.1,14.8,7.5,14.4,7.8z"/>
</svg>
