<?xml version="1.0" encoding="utf-8"?>
<!-- Generator: Adobe Illustrator 16.0.0, SVG Export Plug-In . SVG Version: 6.00 Build 0)  -->
<!DOCTYPE svg PUBLIC "-//W3C//DTD SVG 1.1//EN" "http://www.w3.org/Graphics/SVG/1.1/DTD/svg11.dtd">
<svg version="1.1" id="Layer_1" xmlns="http://www.w3.org/2000/svg" xmlns:xlink="http://www.w3.org/1999/xlink" x="0px" y="0px"
	 width="20px" height="20px" viewBox="0 0 20 20" style="enable-background:new 0 0 20 20;" xml:space="preserve">
<style type="text/css">
<![CDATA[
	.st0{fill:#5D5E5E;}
	.st1{fill-rule:evenodd;clip-rule:evenodd;}
	.st2{fill:#FFFFFF;}
	.st3{fill-rule:evenodd;clip-rule:evenodd;fill:#5D5E5E;}
	.st4{fill-rule:evenodd;clip-rule:evenodd;fill:#FFFFFF;}
]]>
</style>
<path class="st0" d="M9.8-0.2c-5.5,0-10,4.5-10,10c0,5.5,4.5,10,10,10s10-4.5,10-10C19.8,4.3,15.4-0.2,9.8-0.2z M6.9,15
	c-0.7,0-1.3,0-2,0c0,0,0,0-0.1,0c0,0,0-0.1,0-0.1c0-2.2,0-4.5,0-6.7c0-0.1,0-0.1,0.1-0.1c0.6,0,1.3,0,1.9,0C7,8.1,7,8.1,7,8.2
	C7,10.4,7,12.7,6.9,15C7,14.9,7,15,6.9,15z M5.9,7.2c-0.7,0-1.2-0.6-1.2-1.2c0-0.7,0.6-1.2,1.2-1.2c0.7,0,1.3,0.6,1.2,1.2
	C7.2,6.6,6.6,7.2,5.9,7.2z M15,14.9C15,14.9,15,14.9,15,14.9C15,15,14.9,15,15,14.9C14.2,15,13.6,15,12.9,15c-0.1,0-0.1,0-0.1-0.1
	c0-1.2,0-2.5,0-3.7c0-0.3,0-0.6-0.2-0.8c-0.1-0.3-0.4-0.5-0.8-0.6c-0.2,0-0.4,0-0.6,0c-0.4,0.1-0.6,0.3-0.7,0.7
	c-0.1,0.2-0.1,0.5-0.1,0.7c0,1.2,0,2.4,0,3.6c0,0.1,0,0.1-0.1,0.1c-0.7,0-1.3,0-2,0c-0.1,0-0.1,0-0.1-0.1l0-6.7c0-0.1,0-0.1,0.1-0.1
	c0.6,0,1.2,0,1.9,0c0.1,0,0.1,0,0.1,0.1c0,0.3,0,0.5,0,0.8c0,0,0,0,0,0.1c0,0,0,0,0,0c0,0,0-0.1,0.1-0.1c0.3-0.5,0.7-0.8,1.3-0.9
	c0.2-0.1,0.4-0.1,0.6-0.1c0.4,0,0.8,0,1.2,0.2c0.4,0.2,0.8,0.4,1,0.8c0.2,0.3,0.3,0.7,0.3,1c0,0.2,0.1,0.5,0.1,0.7c0,1,0,1.9,0,2.9
	C15,14,15,14.4,15,14.9z"/>
</svg>
